<?xml version="1.0" encoding="utf-8"?>
<!-- Generator: Adobe Illustrator 26.0.3, SVG Export Plug-In . SVG Version: 6.00 Build 0)  -->
<svg version="1.1" id="Layer_1" xmlns="http://www.w3.org/2000/svg" xmlns:xlink="http://www.w3.org/1999/xlink" x="0px" y="0px"
	 viewBox="0 0 28 24" style="enable-background:new 0 0 28 24;" xml:space="preserve">
<style type="text/css">
	.st0{fill:url(#SVGID_1_);}
	.st1{fill:url(#SVGID_00000147903935566767226560000001303738926964258484_);}
	.st2{fill:url(#SVGID_00000010993502232321275820000012354679451279177895_);}
	.st3{fill:url(#SVGID_00000163039184699554741060000015166169628305592482_);}
	.st4{fill:url(#SVGID_00000134251550643984006230000001714407136948872836_);}
	.st5{fill:url(#SVGID_00000070116671329301211660000003039619668789298358_);}
	.st6{fill:url(#SVGID_00000017517493899221742260000010736749536287399062_);}
	.st7{fill:url(#SVGID_00000061462706443764833250000001360173271850449055_);}
	.st8{fill:url(#SVGID_00000113325122169783552370000010500492980305304473_);}
	.st9{fill:url(#SVGID_00000026878934720461550120000006140150362571037602_);}
	.st10{fill:url(#SVGID_00000015346226603725024610000009949506881281134262_);}
	.st11{fill:url(#SVGID_00000081628696624656571940000004072963107217481616_);}
	.st12{fill:url(#SVGID_00000116935414292027718460000014051749772276068490_);}
	.st13{fill:url(#SVGID_00000135671304768077808910000016982099004581904025_);}
	.st14{fill:url(#SVGID_00000170986234125681852420000005465286433077828491_);}
	.st15{fill:url(#SVGID_00000159433816862433202330000005740850991282101935_);}
	.st16{fill:url(#SVGID_00000072247711253333671640000015505929721075744158_);}
	.st17{fill:url(#SVGID_00000070824136363024356340000008884735517782212785_);}
	.st18{fill:url(#SVGID_00000149355588183690237480000011780658784161803669_);}
	.st19{fill:url(#SVGID_00000052811129017140741850000006083793111160642239_);}
	.st20{fill:url(#SVGID_00000134949031240405206670000010155239629894405804_);}
	.st21{fill:url(#SVGID_00000154416276462500559210000008265223170248465340_);}
	.st22{fill:url(#SVGID_00000051375560553495310750000011473574150867745940_);}
	.st23{fill:url(#SVGID_00000119800811194501278090000003452145499741311148_);}
	.st24{fill:url(#SVGID_00000000921703231413415740000010543809123618738338_);}
	.st25{fill:url(#SVGID_00000178198449514570435760000014075771014662910139_);}
	.st26{fill:url(#SVGID_00000110443796309246540760000002399099824311564929_);}
	.st27{fill:url(#SVGID_00000074406988065519764590000007545258903667011992_);}
	.st28{fill:url(#SVGID_00000142862686076783708050000009125590770707351985_);}
	.st29{fill:url(#SVGID_00000102533925461203165670000009192341094356763577_);}
	.st30{fill:url(#SVGID_00000028305636859386289750000000729201137309410976_);}
	.st31{fill:url(#SVGID_00000021840375437442386850000012236514527962898314_);}
	.st32{fill:url(#SVGID_00000043442169458736862860000015057980399699688846_);}
	.st33{fill:url(#SVGID_00000137099282440695771190000003046541765623234441_);}
	.st34{fill:url(#SVGID_00000117648318461534109680000004595052001377058177_);}
	.st35{fill:url(#SVGID_00000072988955720810920570000013945374876703630229_);}
	.st36{fill:url(#SVGID_00000040537084342883037140000000913988481936203419_);}
	.st37{fill:url(#SVGID_00000002386134164438640450000014216762238996804231_);}
	.st38{fill:url(#SVGID_00000156564074161001881750000000381955745756346533_);}
	.st39{fill:url(#SVGID_00000116237471802571581130000001857418428307475080_);}
	.st40{fill:url(#SVGID_00000088093381451866243500000009254353083226979752_);}
	.st41{fill:url(#SVGID_00000089534555917680961240000001938145757957916832_);}
	.st42{fill:url(#SVGID_00000127757830252215584170000014197037917347752585_);}
	.st43{fill:url(#SVGID_00000009550398276340403510000015149834570246310048_);}
	.st44{fill:url(#SVGID_00000094594487143130198270000000450166625758183094_);}
	.st45{fill:url(#SVGID_00000005949780643579020790000013829696772415583415_);}
	.st46{fill:url(#SVGID_00000142134454176508068690000016454380396268168334_);}
	.st47{fill:url(#SVGID_00000088130334441966448060000002776564680874586777_);}
	.st48{fill:url(#SVGID_00000018932297915806709570000000286387568500723345_);}
	.st49{fill:url(#SVGID_00000181070654294052820680000013728620094962975383_);}
	.st50{fill:url(#SVGID_00000059278528836099811470000018390871288262086020_);}
	.st51{fill:url(#SVGID_00000078743346625043847800000009695890445104371620_);}
	.st52{fill:url(#SVGID_00000103232887878751381800000006456265199774901922_);}
	.st53{fill:url(#SVGID_00000155854169674615106480000007588068063774957991_);}
	.st54{fill:url(#SVGID_00000144304658715227423310000005957016945720858036_);}
	.st55{fill:url(#SVGID_00000151531674523083386190000006871812259145333661_);}
	.st56{fill:url(#SVGID_00000170957286917856862600000001489770724815022730_);}
	.st57{fill:url(#SVGID_00000156568635471462525170000012075284681921777053_);}
	.st58{fill:url(#SVGID_00000090293864328026457710000011748787000748120222_);}
	.st59{fill:url(#SVGID_00000140730317191899329620000016802723916841800891_);}
	.st60{fill:url(#SVGID_00000081620050396013233500000003937103466101103777_);}
	.st61{fill:url(#SVGID_00000054244214756835902470000017020069610086923682_);}
	.st62{fill:url(#SVGID_00000025434111635215677500000005472776206619144868_);}
	.st63{fill:url(#SVGID_00000157269684012101520500000002183336298216795814_);}
	.st64{fill:url(#SVGID_00000086667028933446640320000007705070095390144698_);}
	.st65{fill:url(#SVGID_00000064349666848031979540000001208698252008525200_);}
	.st66{fill:url(#SVGID_00000074406079528876106800000006438006926066289553_);}
	.st67{fill:url(#SVGID_00000171000914344272573080000005121767455878349746_);}
	.st68{fill:url(#SVGID_00000049198356292685141630000010031917700702042260_);}
	.st69{fill:url(#SVGID_00000058573223721621386490000014755084696299723445_);}
	.st70{fill:url(#SVGID_00000130642154008506012200000012153264280472564376_);}
	.st71{fill:#FFFFFF;}
</style>
<g>
	
		<radialGradient id="SVGID_1_" cx="292.5897" cy="-16.8224" r="2.3633" fx="293.0593" fy="-14.6928" gradientTransform="matrix(-0.9285 0.2891 -0.2951 -0.9478 278.5537 -96.654)" gradientUnits="userSpaceOnUse">
		<stop  offset="0.2653" style="stop-color:#F89E1B"/>
		<stop  offset="0.6907" style="stop-color:#EF4E23"/>
	</radialGradient>
	<circle class="st0" cx="12.1" cy="3.5" r="1.3"/>
	
		<radialGradient id="SVGID_00000107588757303274545260000005369284454238338229_" cx="288.1917" cy="-7.0463" r="2.0257" fx="288.5942" fy="-5.2209" gradientTransform="matrix(-0.9285 0.2891 -0.2951 -0.9478 273.078 -76.6097)" gradientUnits="userSpaceOnUse">
		<stop  offset="0.2653" style="stop-color:#F89E1B"/>
		<stop  offset="0.6907" style="stop-color:#EF4E23"/>
	</radialGradient>
	<circle style="fill:url(#SVGID_00000107588757303274545260000005369284454238338229_);" cx="7.7" cy="13.1" r="1.1"/>
	
		<radialGradient id="SVGID_00000039845787962675493730000014135195550167486359_" cx="286.317" cy="-4.702" r="2.0257" fx="286.7194" fy="-2.8766" gradientTransform="matrix(-0.9285 0.2891 -0.2951 -0.9478 270.2058 -71.566)" gradientUnits="userSpaceOnUse">
		<stop  offset="0.2653" style="stop-color:#F89E1B"/>
		<stop  offset="0.6907" style="stop-color:#EF4E23"/>
	</radialGradient>
	<circle style="fill:url(#SVGID_00000039845787962675493730000014135195550167486359_);" cx="5.9" cy="15.4" r="1.1"/>
	
		<radialGradient id="SVGID_00000108289804700312436770000007115157698498709399_" cx="12.4324" cy="6.0295" r="2.0919" fx="12.848" fy="7.9146" gradientTransform="matrix(-0.9548 0.2973 -0.3035 -0.9745 26.1324 8.2094)" gradientUnits="userSpaceOnUse">
		<stop  offset="0.2653" style="stop-color:#19B0CD"/>
		<stop  offset="0.8751" style="stop-color:#17556A"/>
	</radialGradient>
	<circle style="fill:url(#SVGID_00000108289804700312436770000007115157698498709399_);" cx="12.6" cy="5.7" r="1.1"/>
	
		<radialGradient id="SVGID_00000077324578591113024760000001626269800220652710_" cx="5.7064" cy="9.0498" r="2.0297" fx="6.1096" fy="10.8788" gradientTransform="matrix(-0.9548 0.2973 -0.3035 -0.9745 13.901 16.1727)" gradientUnits="userSpaceOnUse">
		<stop  offset="0.2653" style="stop-color:#19B0CD"/>
		<stop  offset="0.8751" style="stop-color:#17556A"/>
	</radialGradient>
	<circle style="fill:url(#SVGID_00000077324578591113024760000001626269800220652710_);" cx="5.9" cy="8.7" r="1.1"/>
	
		<radialGradient id="SVGID_00000094607070607617010240000001276144170205341366_" cx="7.5569" cy="11.2726" r="2.0297" fx="7.9601" fy="13.1016" gradientTransform="matrix(-0.9548 0.2973 -0.3035 -0.9745 18.1928 20.0115)" gradientUnits="userSpaceOnUse">
		<stop  offset="0.2653" style="stop-color:#19B0CD"/>
		<stop  offset="0.8751" style="stop-color:#17556A"/>
	</radialGradient>
	<circle style="fill:url(#SVGID_00000094607070607617010240000001276144170205341366_);" cx="7.7" cy="11" r="1.1"/>
	
		<radialGradient id="SVGID_00000021816254544235121190000018069321926335050378_" cx="2014.8635" cy="1892.5289" r="2.3213" fx="2015.3247" fy="1894.6206" gradientTransform="matrix(-0.6435 0.2004 -0.2045 -0.6569 1689.3719 850.7606)" gradientUnits="userSpaceOnUse">
		<stop  offset="0.2653" style="stop-color:#19B0CD"/>
		<stop  offset="0.8751" style="stop-color:#17556A"/>
	</radialGradient>
	<circle style="fill:url(#SVGID_00000021816254544235121190000018069321926335050378_);" cx="5.8" cy="11.1" r="0.9"/>
	
		<radialGradient id="SVGID_00000150075966401126694980000014512882909392016304_" cx="2014.8635" cy="1895.1831" r="2.3213" fx="2015.3247" fy="1897.2748" gradientTransform="matrix(-0.6435 0.2004 -0.2045 -0.6569 1689.9149 854.293)" gradientUnits="userSpaceOnUse">
		<stop  offset="0.2653" style="stop-color:#19B0CD"/>
		<stop  offset="0.8751" style="stop-color:#17556A"/>
	</radialGradient>
	<circle style="fill:url(#SVGID_00000150075966401126694980000014512882909392016304_);" cx="5.8" cy="12.9" r="0.9"/>
	
		<radialGradient id="SVGID_00000007407249382844348840000009715910327939428027_" cx="2020.67" cy="1881.9713" r="2.1332" fx="2021.0939" fy="1883.8934" gradientTransform="matrix(-0.6435 0.2004 -0.2045 -0.6569 1694.8629 835.546)" gradientUnits="userSpaceOnUse">
		<stop  offset="0.2653" style="stop-color:#19B0CD"/>
		<stop  offset="0.8751" style="stop-color:#17556A"/>
	</radialGradient>
	<circle style="fill:url(#SVGID_00000007407249382844348840000009715910327939428027_);" cx="9.7" cy="4" r="0.8"/>
	
		<radialGradient id="SVGID_00000007428551644867543830000012532228987198753981_" cx="296.7162" cy="-16.9015" r="2.1332" fx="297.14" fy="-14.9793" gradientTransform="matrix(-0.9285 0.2891 -0.2951 -0.9478 286.3748 -97.9989)" gradientUnits="userSpaceOnUse">
		<stop  offset="0.2653" style="stop-color:#19B0CD"/>
		<stop  offset="0.8751" style="stop-color:#17556A"/>
	</radialGradient>
	<circle style="fill:url(#SVGID_00000007428551644867543830000012532228987198753981_);" cx="16" cy="3.5" r="1.1"/>
	
		<radialGradient id="SVGID_00000181082462272401767290000005563395113556981691_" cx="302.7782" cy="-11.4804" r="2.1332" fx="303.202" fy="-9.5583" gradientTransform="matrix(-0.9285 0.2891 -0.2951 -0.9478 299.4989 -89.3418)" gradientUnits="userSpaceOnUse">
		<stop  offset="0.2653" style="stop-color:#19B0CD"/>
		<stop  offset="0.8751" style="stop-color:#17556A"/>
	</radialGradient>
	<circle style="fill:url(#SVGID_00000181082462272401767290000005563395113556981691_);" cx="21.9" cy="8.8" r="1.1"/>
	
		<radialGradient id="SVGID_00000158721909088111285790000011631334116483893645_" cx="303.1157" cy="-9.113" r="1.6088" fx="303.4353" fy="-7.6633" gradientTransform="matrix(-0.9285 0.2891 -0.2951 -0.9478 300.8391 -84.8933)" gradientUnits="userSpaceOnUse">
		<stop  offset="0.2653" style="stop-color:#19B0CD"/>
		<stop  offset="0.8751" style="stop-color:#17556A"/>
	</radialGradient>
	<circle style="fill:url(#SVGID_00000158721909088111285790000011631334116483893645_);" cx="22.2" cy="11.1" r="0.9"/>
	
		<radialGradient id="SVGID_00000013186328457106282220000009296297931750256050_" cx="301.082" cy="-7.0182" r="2.0257" fx="301.4845" fy="-5.1928" gradientTransform="matrix(-0.9285 0.2891 -0.2951 -0.9478 297.5913 -80.2829)" gradientUnits="userSpaceOnUse">
		<stop  offset="0.2653" style="stop-color:#19B0CD"/>
		<stop  offset="0.8751" style="stop-color:#17556A"/>
	</radialGradient>
	<circle style="fill:url(#SVGID_00000013186328457106282220000009296297931750256050_);" cx="20.3" cy="13.1" r="1.1"/>
	
		<radialGradient id="SVGID_00000114786254388937069770000015709274451687091085_" cx="296.0135" cy="-1.7626" r="2.0257" fx="296.4159" fy="6.277526e-02" gradientTransform="matrix(-0.9285 0.2891 -0.2951 -0.9478 289.5067 -68.7252)" gradientUnits="userSpaceOnUse">
		<stop  offset="0.2653" style="stop-color:#19B0CD"/>
		<stop  offset="0.8751" style="stop-color:#17556A"/>
	</radialGradient>
	<circle style="fill:url(#SVGID_00000114786254388937069770000015709274451687091085_);" cx="15.4" cy="18.2" r="1.1"/>
	
		<radialGradient id="SVGID_00000079454795256766298650000014435980841153355454_" cx="299.0616" cy="0.261" r="1.4695" fx="299.3536" fy="1.5852" gradientTransform="matrix(-0.9285 0.2891 -0.2951 -0.9478 295.8986 -65.7207)" gradientUnits="userSpaceOnUse">
		<stop  offset="0.2653" style="stop-color:#19B0CD"/>
		<stop  offset="0.8751" style="stop-color:#17556A"/>
	</radialGradient>
	<circle style="fill:url(#SVGID_00000079454795256766298650000014435980841153355454_);" cx="18.3" cy="20.3" r="0.8"/>
	
		<radialGradient id="SVGID_00000110432647964295159250000013830967172966547114_" cx="294.6715" cy="-0.1095" r="1.4695" fx="294.9635" fy="1.2147" gradientTransform="matrix(-0.9285 0.2891 -0.2951 -0.9478 287.4435 -65.1628)" gradientUnits="userSpaceOnUse">
		<stop  offset="0.2653" style="stop-color:#19B0CD"/>
		<stop  offset="0.8751" style="stop-color:#17556A"/>
	</radialGradient>
	<circle style="fill:url(#SVGID_00000110432647964295159250000013830967172966547114_);" cx="14" cy="19.9" r="0.8"/>
	
		<radialGradient id="SVGID_00000003819388844876196820000010828233286103054212_" cx="292.6403" cy="0.4209" r="2.0865" fx="293.0548" fy="2.301" gradientTransform="matrix(-0.9285 0.2891 -0.2951 -0.9478 283.7386 -63.557)" gradientUnits="userSpaceOnUse">
		<stop  offset="0.2653" style="stop-color:#F89E1B"/>
		<stop  offset="0.6907" style="stop-color:#EF4E23"/>
	</radialGradient>
	<circle style="fill:url(#SVGID_00000003819388844876196820000010828233286103054212_);" cx="12.1" cy="20.3" r="1.1"/>
	
		<radialGradient id="SVGID_00000114041563320321300410000003552110679439929220_" cx="293.1273" cy="-1.7355" r="2.2008" fx="293.5645" fy="0.2476" gradientTransform="matrix(-0.9285 0.2891 -0.2951 -0.9478 284.028 -67.8388)" gradientUnits="userSpaceOnUse">
		<stop  offset="0.2653" style="stop-color:#F89E1B"/>
		<stop  offset="0.6907" style="stop-color:#EF4E23"/>
	</radialGradient>
	<circle style="fill:url(#SVGID_00000114041563320321300410000003552110679439929220_);" cx="12.6" cy="18.2" r="1.2"/>
	
		<radialGradient id="SVGID_00000173141583704286498640000010460227057489958314_" cx="296.6547" cy="0.3887" r="1.8785" fx="297.0279" fy="2.0814" gradientTransform="matrix(-0.9285 0.2891 -0.2951 -0.9478 291.3606 -64.7795)" gradientUnits="userSpaceOnUse">
		<stop  offset="0.2653" style="stop-color:#F89E1B"/>
		<stop  offset="0.6907" style="stop-color:#EF4E23"/>
	</radialGradient>
	<circle style="fill:url(#SVGID_00000173141583704286498640000010460227057489958314_);" cx="16" cy="20.3" r="1"/>
	
		<radialGradient id="SVGID_00000162345903594341771120000006142378069966439834_" cx="302.7866" cy="-4.6709" r="2.045" fx="303.1929" fy="-2.8282" gradientTransform="matrix(-0.9285 0.2891 -0.2951 -0.9478 301.5244 -76.2683)" gradientUnits="userSpaceOnUse">
		<stop  offset="0.2653" style="stop-color:#F89E1B"/>
		<stop  offset="0.6907" style="stop-color:#EF4E23"/>
	</radialGradient>
	<circle style="fill:url(#SVGID_00000162345903594341771120000006142378069966439834_);" cx="21.9" cy="15.4" r="1.1"/>
	
		<radialGradient id="SVGID_00000147178192575054970860000008664627239166241168_" cx="300.9619" cy="-9.1503" r="2.2124" fx="301.4014" fy="-7.1567" gradientTransform="matrix(-0.9285 0.2891 -0.2951 -0.9478 296.7336 -84.3423)" gradientUnits="userSpaceOnUse">
		<stop  offset="0.2653" style="stop-color:#F89E1B"/>
		<stop  offset="0.6907" style="stop-color:#EF4E23"/>
	</radialGradient>
	<circle style="fill:url(#SVGID_00000147178192575054970860000008664627239166241168_);" cx="20.2" cy="11" r="1.2"/>
	
		<radialGradient id="SVGID_00000109018031515711073720000018059177061714781056_" cx="303.1241" cy="-7.2612" r="1.5207" fx="303.4262" fy="-5.8909" gradientTransform="matrix(-0.9285 0.2891 -0.2951 -0.9478 301.4016 -81.3398)" gradientUnits="userSpaceOnUse">
		<stop  offset="0.2653" style="stop-color:#F89E1B"/>
		<stop  offset="0.6907" style="stop-color:#EF4E23"/>
	</radialGradient>
	<circle style="fill:url(#SVGID_00000109018031515711073720000018059177061714781056_);" cx="22.2" cy="13" r="0.8"/>
	
		<radialGradient id="SVGID_00000142170262424786042570000009062897411882352011_" cx="298.9227" cy="-16.4237" r="1.5207" fx="299.2249" fy="-15.0535" gradientTransform="matrix(-0.9285 0.2891 -0.2951 -0.9478 290.7107 -97.7195)" gradientUnits="userSpaceOnUse">
		<stop  offset="0.2653" style="stop-color:#F89E1B"/>
		<stop  offset="0.6907" style="stop-color:#EF4E23"/>
	</radialGradient>
	<circle style="fill:url(#SVGID_00000142170262424786042570000009062897411882352011_);" cx="18.1" cy="4" r="0.8"/>
	
		<radialGradient id="SVGID_00000162323844162930557040000006846703723771536571_" cx="296.0392" cy="-14.6089" r="2.2124" fx="296.4788" fy="-12.6153" gradientTransform="matrix(-0.9285 0.2891 -0.2951 -0.9478 285.7646 -93.4009)" gradientUnits="userSpaceOnUse">
		<stop  offset="0.2653" style="stop-color:#F89E1B"/>
		<stop  offset="0.6907" style="stop-color:#EF4E23"/>
	</radialGradient>
	<circle style="fill:url(#SVGID_00000162323844162930557040000006846703723771536571_);" cx="15.4" cy="5.7" r="1.2"/>
	
		<radialGradient id="SVGID_00000002343274418014490490000002216297376690739603_" cx="290.1663" cy="0.2713" r="1.5359" fx="290.4714" fy="1.6552" gradientTransform="matrix(-0.9285 0.2891 -0.2951 -0.9478 278.9912 -63.1291)" gradientUnits="userSpaceOnUse">
		<stop  offset="0.2653" style="stop-color:#19B0CD"/>
		<stop  offset="0.8751" style="stop-color:#17556A"/>
	</radialGradient>
	<circle style="fill:url(#SVGID_00000002343274418014490490000002216297376690739603_);" cx="9.6" cy="20.3" r="0.8"/>
	<g>
		
			<radialGradient id="SVGID_00000134954073479783654790000016731071143606833286_" cx="305.5054" cy="-4.5987" r="1.5207" fx="305.8076" fy="-3.2284" gradientTransform="matrix(-0.9285 0.2891 -0.2951 -0.9478 306.7143 -76.9156)" gradientUnits="userSpaceOnUse">
			<stop  offset="0.2653" style="stop-color:#F89E1B"/>
			<stop  offset="0.6907" style="stop-color:#EF4E23"/>
		</radialGradient>
		<path style="fill:url(#SVGID_00000134954073479783654790000016731071143606833286_);" d="M25.4,15.6c0,0.1-0.1,0.3-0.1,0.4
			C25.3,15.9,25.3,15.7,25.4,15.6z"/>
		
			<radialGradient id="SVGID_00000106125123848596150110000006320225027318527907_" cx="297.8663" cy="2.7154" r="1.6079" fx="298.1858" fy="4.1642" gradientTransform="matrix(-0.9285 0.2891 -0.2951 -0.9478 294.3506 -60.6621)" gradientUnits="userSpaceOnUse">
			<stop  offset="0.2653" style="stop-color:#19B0CD"/>
			<stop  offset="0.8751" style="stop-color:#17556A"/>
		</radialGradient>
		<path style="fill:url(#SVGID_00000106125123848596150110000006320225027318527907_);" d="M17.1,23.5c0.2,0,0.4-0.1,0.5-0.2
			C17.4,23.4,17.3,23.5,17.1,23.5C17.1,23.5,17.1,23.5,17.1,23.5z"/>
		
			<radialGradient id="SVGID_00000136389857961047508380000006214756138594107837_" cx="291.4338" cy="2.7154" r="1.6079" fx="291.7533" fy="4.1642" gradientTransform="matrix(-0.9285 0.2891 -0.2951 -0.9478 282.1221 -58.8022)" gradientUnits="userSpaceOnUse">
			<stop  offset="0.2653" style="stop-color:#19B0CD"/>
			<stop  offset="0.8751" style="stop-color:#17556A"/>
		</radialGradient>
		<path style="fill:url(#SVGID_00000136389857961047508380000006214756138594107837_);" d="M10.9,23.5
			C10.9,23.5,10.9,23.5,10.9,23.5c-0.1-0.1-0.3-0.1-0.5-0.2C10.5,23.4,10.7,23.5,10.9,23.5z"/>
		
			<radialGradient id="SVGID_00000060717481315564378400000012528943008218091701_" cx="286.102" cy="-14.3266" r="4.4696" fx="286.99" fy="-10.299" gradientTransform="matrix(-0.9285 0.2891 -0.2951 -0.9478 266.9568 -89.9855)" gradientUnits="userSpaceOnUse">
			<stop  offset="0.2653" style="stop-color:#19B0CD"/>
			<stop  offset="0.8751" style="stop-color:#17556A"/>
		</radialGradient>
		<path style="fill:url(#SVGID_00000060717481315564378400000012528943008218091701_);" d="M4,5.6c0.1,0,0.2-0.1,0.3-0.1
			c0.5,0,0.8,0.4,0.8,0.8S4.7,7.2,4.3,7.2c-0.1,0-0.1,0-0.2,0c0.1,0.2,0.3,0.3,0.5,0.4c0.6-1.3,1.5-2.5,2.5-3.4
			C6.7,4.1,6.4,3.7,6.3,3.3c-0.1,0-0.2,0-0.3,0c0,0,0,0,0,0C5.2,3.9,4.5,4.7,4,5.6z"/>
		
			<radialGradient id="SVGID_00000018235169156443153910000001255334267942838719_" cx="287.5095" cy="1.3784" r="5.6522" fx="288.6325" fy="6.4716" gradientTransform="matrix(-0.9285 0.2891 -0.2951 -0.9478 274.2674 -60.235)" gradientUnits="userSpaceOnUse">
			<stop  offset="0" style="stop-color:#0086AE"/>
			<stop  offset="0.5958" style="stop-color:#17556A"/>
		</radialGradient>
		<path style="fill:url(#SVGID_00000018235169156443153910000001255334267942838719_);" d="M6.5,21.2c0-0.6,0.4-1,0.9-1.2
			c-0.8-0.7-1.5-1.5-2.1-2.4c-0.4,0-0.6-0.3-0.7-0.7c-0.4,0.2-0.7,0.4-1,0.7C4.3,19.1,5.3,20.3,6.5,21.2z"/>
		
			<radialGradient id="SVGID_00000009552225531266943080000012779396481183827848_" cx="304.8507" cy="0.1962" r="4.6753" fx="305.7796" fy="4.4091" gradientTransform="matrix(-0.9285 0.2891 -0.2951 -0.9478 306.8847 -67.5189)" gradientUnits="userSpaceOnUse">
			<stop  offset="0" style="stop-color:#0086AE"/>
			<stop  offset="0.5958" style="stop-color:#17556A"/>
		</radialGradient>
		<path style="fill:url(#SVGID_00000009552225531266943080000012779396481183827848_);" d="M23.4,16.5c-0.7,1.4-1.6,2.6-2.7,3.5
			c0.5,0.2,0.9,0.6,1,1.1c0,0,0,0,0.1,0c1.3-1.1,2.3-2.4,3-3.9C24.4,16.8,23.9,16.6,23.4,16.5z"/>
		
			<radialGradient id="SVGID_00000119838588539621631730000012687437888315712145_" cx="287.5095" cy="1.3784" r="5.6522" fx="288.6325" fy="6.4716" gradientTransform="matrix(-0.9285 0.2891 -0.2951 -0.9478 274.2674 -60.235)" gradientUnits="userSpaceOnUse">
			<stop  offset="0" style="stop-color:#0086AE"/>
			<stop  offset="0.5958" style="stop-color:#17556A"/>
		</radialGradient>
		<path style="fill:url(#SVGID_00000119838588539621631730000012687437888315712145_);" d="M4.6,17c0.1,0.4,0.3,0.6,0.7,0.7
			c-0.2-0.3-0.3-0.5-0.5-0.8C4.8,16.9,4.7,16.9,4.6,17z"/>
		
			<radialGradient id="SVGID_00000119075215608301284200000013666251614302367154_" cx="285.8218" cy="-3.2738" r="1.5359" fx="286.1269" fy="-1.8898" gradientTransform="matrix(-0.9285 0.2891 -0.2951 -0.9478 269.686 -68.6803)" gradientUnits="userSpaceOnUse">
			<stop  offset="0.2653" style="stop-color:#19B0CD"/>
			<stop  offset="0.8751" style="stop-color:#17556A"/>
		</radialGradient>
		<path style="fill:url(#SVGID_00000119075215608301284200000013666251614302367154_);" d="M4.6,17c0.1,0.4,0.3,0.6,0.7,0.7
			c-0.2-0.3-0.3-0.5-0.5-0.8C4.8,16.9,4.7,16.9,4.6,17z"/>
		
			<radialGradient id="SVGID_00000003087691693052469000000000905613184728203175_" cx="302.163" cy="-15.4211" r="7.0444" fx="303.5626" fy="-9.0734" gradientTransform="matrix(-0.9285 0.2891 -0.2951 -0.9478 297.1664 -96.731)" gradientUnits="userSpaceOnUse">
			<stop  offset="0.2653" style="stop-color:#F89E1B"/>
			<stop  offset="0.6907" style="stop-color:#EF4E23"/>
		</radialGradient>
		<path style="fill:url(#SVGID_00000003087691693052469000000000905613184728203175_);" d="M18.4,2.6c1.7,0.8,3.2,2.1,4.3,3.7
			c0-0.5,0.4-0.9,0.9-0.9c0.1,0,0.2,0,0.3,0.1c-1.1-1.7-2.7-3.1-4.6-4.1C18.9,1.7,18.6,2.1,18.4,2.6z"/>
		
			<radialGradient id="SVGID_00000039832871062734903690000017709588977740843193_" cx="302.1583" cy="-15.4211" r="7.0546" fx="303.5599" fy="-9.0641" gradientTransform="matrix(-0.9285 0.2891 -0.2951 -0.9478 297.1574 -96.7296)" gradientUnits="userSpaceOnUse">
			<stop  offset="0.2653" style="stop-color:#F89E1B"/>
			<stop  offset="0.6907" style="stop-color:#EF4E23"/>
		</radialGradient>
		<path style="fill:url(#SVGID_00000039832871062734903690000017709588977740843193_);" d="M23.6,7.2c-0.2,0-0.3,0-0.4-0.1
			c0.1,0.2,0.2,0.3,0.2,0.5c0.5-0.2,0.9-0.5,1.2-0.9c0-0.1-0.1-0.1-0.1-0.2C24.5,6.9,24.1,7.2,23.6,7.2z"/>
		
			<radialGradient id="SVGID_00000047026260893708080110000001197050540319441338_" cx="293.7175" cy="-19.677" r="3.237" fx="294.3606" fy="-16.7601" gradientTransform="matrix(-0.9285 0.2891 -0.2951 -0.9478 279.8551 -102.4616)" gradientUnits="userSpaceOnUse">
			<stop  offset="0.2653" style="stop-color:#19B0CD"/>
			<stop  offset="0.8751" style="stop-color:#17556A"/>
		</radialGradient>
		<path style="fill:url(#SVGID_00000047026260893708080110000001197050540319441338_);" d="M14.9,0.1c-0.1,0-0.1,0-0.2,0
			c0.1,0,0.2,0.1,0.3,0.2C14.9,0.2,14.9,0.2,14.9,0.1z"/>
		
			<radialGradient id="SVGID_00000045593254381888470090000015884739054200701859_" cx="293.7175" cy="-19.677" r="3.237" fx="294.3606" fy="-16.7601" gradientTransform="matrix(-0.9285 0.2891 -0.2951 -0.9478 279.8551 -102.4616)" gradientUnits="userSpaceOnUse">
			<stop  offset="0.2653" style="stop-color:#19B0CD"/>
			<stop  offset="0.8751" style="stop-color:#17556A"/>
		</radialGradient>
		<path style="fill:url(#SVGID_00000045593254381888470090000015884739054200701859_);" d="M13.2,0.1C13.2,0.1,13.2,0.1,13.2,0.1
			C13.2,0.1,13.2,0.1,13.2,0.1C13.2,0.1,13.2,0.1,13.2,0.1z"/>
		
			<radialGradient id="SVGID_00000013188758644548868700000012153715580810658218_" cx="295.3847" cy="-19.8183" r="3.2293" fx="296.0263" fy="-16.9085" gradientTransform="matrix(-0.9285 0.2891 -0.2951 -0.9478 282.9829 -103.2151)" gradientUnits="userSpaceOnUse">
			<stop  offset="0.2653" style="stop-color:#F89E1B"/>
			<stop  offset="0.6907" style="stop-color:#EF4E23"/>
		</radialGradient>
		<path style="fill:url(#SVGID_00000013188758644548868700000012153715580810658218_);" d="M13.2,0.1C13.2,0.1,13.2,0.1,13.2,0.1
			C13.2,0.1,13.2,0.1,13.2,0.1C13.2,0.1,13.2,0.1,13.2,0.1z"/>
		
			<radialGradient id="SVGID_00000035526913411351192880000014625998468516779913_" cx="283.7396" cy="-4.5217" r="1.5681" fx="284.0511" fy="-3.1087" gradientTransform="matrix(-0.9285 0.2891 -0.2951 -0.9478 265.3594 -70.4746)" gradientUnits="userSpaceOnUse">
			<stop  offset="0.2653" style="stop-color:#F89E1B"/>
			<stop  offset="0.6907" style="stop-color:#EF4E23"/>
		</radialGradient>
		<path style="fill:url(#SVGID_00000035526913411351192880000014625998468516779913_);" d="M4.2,15.6c0-0.5-0.4-0.8-0.8-0.8
			c-0.4,0-0.7,0.2-0.8,0.6c0.1,0.3,0.2,0.6,0.3,0.9c0.1,0.1,0.3,0.1,0.5,0.1C3.8,16.4,4.2,16.1,4.2,15.6z"/>
		
			<radialGradient id="SVGID_00000053527252785564378730000006536350379450834583_" cx="286.102" cy="-14.3266" r="4.4696" fx="286.99" fy="-10.299" gradientTransform="matrix(-0.9285 0.2891 -0.2951 -0.9478 266.9568 -89.9855)" gradientUnits="userSpaceOnUse">
			<stop  offset="0.2653" style="stop-color:#19B0CD"/>
			<stop  offset="0.8751" style="stop-color:#17556A"/>
		</radialGradient>
		<path style="fill:url(#SVGID_00000053527252785564378730000006536350379450834583_);" d="M5.1,6.4c0-0.5-0.4-0.8-0.8-0.8
			c-0.1,0-0.2,0-0.3,0.1C3.9,5.8,3.7,6,3.6,6.2c0.1,0.4,0.3,0.7,0.5,1c0.1,0,0.1,0,0.2,0C4.7,7.2,5.1,6.8,5.1,6.4z"/>
		
			<radialGradient id="SVGID_00000034801961454486855700000004266761754202805693_" cx="4.0264" cy="6.5876" r="1.6495" fx="4.3541" fy="8.074" gradientTransform="matrix(-0.9548 0.2973 -0.3035 -0.9745 9.8697 11.8105)" gradientUnits="userSpaceOnUse">
			<stop  offset="0.2653" style="stop-color:#F89E1B"/>
			<stop  offset="0.6907" style="stop-color:#EF4E23"/>
		</radialGradient>
		<path style="fill:url(#SVGID_00000034801961454486855700000004266761754202805693_);" d="M4.3,5.5c-0.1,0-0.2,0-0.3,0.1
			C3.9,5.8,3.7,6,3.6,6.2C3.6,6.3,3.5,6.4,3.5,6.5c0.1,0.3,0.3,0.6,0.7,0.7c0.1,0,0.1,0,0.2,0c0.5,0,0.8-0.4,0.8-0.8
			S4.7,5.5,4.3,5.5z"/>
		
			<radialGradient id="SVGID_00000072997900608815781370000014051476897123247020_" cx="283.0154" cy="-8.1423" r="2.8098" fx="283.5736" fy="-5.6104" gradientTransform="matrix(-0.9285 0.2891 -0.2951 -0.9478 262.9141 -77.2177)" gradientUnits="userSpaceOnUse">
			<stop  offset="0.2653" style="stop-color:#F89E1B"/>
			<stop  offset="0.6907" style="stop-color:#EF4E23"/>
		</radialGradient>
		<path style="fill:url(#SVGID_00000072997900608815781370000014051476897123247020_);" d="M3.7,13.1c0-0.4-0.1-0.7-0.1-1.1
			c0-0.4,0-0.9,0.1-1.3c-0.3-0.2-0.6-0.3-0.9-0.3c-0.2,0-0.4,0-0.6,0.1c-0.1,0.5-0.1,1-0.1,1.5c0,0.4,0,0.9,0.1,1.3
			c0.2,0.1,0.4,0.1,0.6,0.1C3.1,13.4,3.4,13.3,3.7,13.1z"/>
		
			<radialGradient id="SVGID_00000071558489468703247290000002321790532360792762_" cx="304.8507" cy="0.1962" r="4.6753" fx="305.7796" fy="4.4091" gradientTransform="matrix(-0.9285 0.2891 -0.2951 -0.9478 306.8847 -67.5189)" gradientUnits="userSpaceOnUse">
			<stop  offset="0" style="stop-color:#0086AE"/>
			<stop  offset="0.5958" style="stop-color:#17556A"/>
		</radialGradient>
		<path style="fill:url(#SVGID_00000071558489468703247290000002321790532360792762_);" d="M21.6,21.1c-0.1-0.5-0.5-0.9-1-1.1
			c0,0,0,0,0,0C20.8,20.4,21.2,20.8,21.6,21.1z"/>
		
			<radialGradient id="SVGID_00000077313062572465996000000010582494563043155635_" cx="306.0533" cy="-8.1223" r="3.0174" fx="306.6527" fy="-5.4033" gradientTransform="matrix(-0.9285 0.2891 -0.2951 -0.9478 306.7159 -83.8403)" gradientUnits="userSpaceOnUse">
			<stop  offset="0.2653" style="stop-color:#19B0CD"/>
			<stop  offset="0.8751" style="stop-color:#17556A"/>
		</radialGradient>
		<path style="fill:url(#SVGID_00000077313062572465996000000010582494563043155635_);" d="M24.3,10.6c0.1,0.5,0.1,0.9,0.1,1.4
			c0,0.4,0,0.8-0.1,1.2c0.3,0.2,0.6,0.3,0.9,0.3c0.2,0,0.4,0,0.6-0.1c0.1-0.5,0.1-0.9,0.1-1.4c0-0.5,0-1.1-0.1-1.6
			c-0.2-0.1-0.4-0.1-0.6-0.1C24.9,10.3,24.5,10.4,24.3,10.6z"/>
		
			<radialGradient id="SVGID_00000166660751216280913100000004796633702055338147_" cx="305.5054" cy="-4.5987" r="1.5207" fx="305.8076" fy="-3.2284" gradientTransform="matrix(-0.9285 0.2891 -0.2951 -0.9478 306.7143 -76.9156)" gradientUnits="userSpaceOnUse">
			<stop  offset="0.2653" style="stop-color:#F89E1B"/>
			<stop  offset="0.6907" style="stop-color:#EF4E23"/>
		</radialGradient>
		<path style="fill:url(#SVGID_00000166660751216280913100000004796633702055338147_);" d="M24.5,14.7c-0.2,0-0.5,0.1-0.6,0.3
			c-0.1,0.2-0.1,0.4-0.2,0.6c0,0.4,0.4,0.7,0.8,0.7c0.3,0,0.5-0.1,0.7-0.4c0-0.1,0.1-0.3,0.1-0.4c0,0,0,0,0,0
			C25.4,15.1,25,14.7,24.5,14.7z"/>
		
			<radialGradient id="SVGID_00000107587379219377174560000007931117574874685355_" cx="287.5095" cy="1.3784" r="5.6522" fx="288.6325" fy="6.4716" gradientTransform="matrix(-0.9285 0.2891 -0.2951 -0.9478 274.2674 -60.235)" gradientUnits="userSpaceOnUse">
			<stop  offset="0" style="stop-color:#0086AE"/>
			<stop  offset="0.5958" style="stop-color:#17556A"/>
		</radialGradient>
		<path style="fill:url(#SVGID_00000107587379219377174560000007931117574874685355_);" d="M6.5,21.2c0.4,0.3,0.8,0.6,1.2,0.9
			c0.4-0.3,0.7-0.7,0.9-1.2c-0.4-0.3-0.8-0.5-1.2-0.9C6.9,20.2,6.5,20.7,6.5,21.2z"/>
		
			<radialGradient id="SVGID_00000140006144370134905900000001150161765389714615_" cx="8.0161" cy="22.0906" r="3.3283" fx="8.6774" fy="25.0898" gradientTransform="matrix(-0.9548 0.2973 -0.3035 -0.9745 22.3734 41.2358)" gradientUnits="userSpaceOnUse">
			<stop  offset="0.2653" style="stop-color:#F89E1B"/>
			<stop  offset="0.6907" style="stop-color:#EF4E23"/>
		</radialGradient>
		<path style="fill:url(#SVGID_00000140006144370134905900000001150161765389714615_);" d="M9.3,21.2C9,21.1,8.8,21,8.6,20.9
			c-0.4-0.3-0.8-0.5-1.2-0.9c-0.5,0.2-0.9,0.7-0.9,1.2c0.4,0.3,0.8,0.6,1.2,0.9c0.3,0.2,0.5,0.3,0.8,0.5C9,22.3,9.3,21.9,9.3,21.2
			C9.3,21.3,9.3,21.3,9.3,21.2z"/>
		
			<radialGradient id="SVGID_00000085241666769363831290000017725161422264932514_" cx="305.5103" cy="-11.6083" r="1.4695" fx="305.8022" fy="-10.2842" gradientTransform="matrix(-0.9285 0.2891 -0.2951 -0.9478 304.6549 -90.3774)" gradientUnits="userSpaceOnUse">
			<stop  offset="0.2653" style="stop-color:#19B0CD"/>
			<stop  offset="0.8751" style="stop-color:#17556A"/>
		</radialGradient>
		<path style="fill:url(#SVGID_00000085241666769363831290000017725161422264932514_);" d="M24.5,9.5c0.4,0,0.8-0.4,0.8-0.8
			C25.3,8.3,25,8,24.5,8c-0.4,0-0.7,0.2-0.8,0.6C23.9,8.8,24,9.1,24,9.3C24.2,9.4,24.3,9.5,24.5,9.5z"/>
		
			<radialGradient id="SVGID_00000039124269596053421440000010663345954076449703_" cx="302.1583" cy="-15.4211" r="7.0546" fx="303.5599" fy="-9.0641" gradientTransform="matrix(-0.9285 0.2891 -0.2951 -0.9478 297.1574 -96.7296)" gradientUnits="userSpaceOnUse">
			<stop  offset="0.2653" style="stop-color:#F89E1B"/>
			<stop  offset="0.6907" style="stop-color:#EF4E23"/>
		</radialGradient>
		<path style="fill:url(#SVGID_00000039124269596053421440000010663345954076449703_);" d="M23.6,7.2c0.5,0,0.9-0.3,0.9-0.8
			c-0.2-0.4-0.4-0.7-0.6-1c-0.1,0-0.2-0.1-0.3-0.1c-0.5,0-0.9,0.4-0.9,0.9c0.2,0.3,0.3,0.6,0.5,0.8C23.3,7.2,23.4,7.2,23.6,7.2z"/>
		
			<radialGradient id="SVGID_00000177462085875116750130000005210680872890221455_" cx="304.5173" cy="-14.0695" r="1.7596" fx="304.8669" fy="-12.4839" gradientTransform="matrix(-0.9285 0.2891 -0.2951 -0.9478 302.041 -94.8164)" gradientUnits="userSpaceOnUse">
			<stop  offset="0.2653" style="stop-color:#19B0CD"/>
			<stop  offset="0.8751" style="stop-color:#17556A"/>
		</radialGradient>
		<path style="fill:url(#SVGID_00000177462085875116750130000005210680872890221455_);" d="M23.6,7.2c0.5,0,0.9-0.3,0.9-0.8
			c-0.2-0.4-0.4-0.7-0.6-1c-0.1,0-0.2-0.1-0.3-0.1c-0.5,0-0.9,0.4-0.9,0.9c0.2,0.3,0.3,0.6,0.5,0.8C23.3,7.2,23.4,7.2,23.6,7.2z"/>
		
			<radialGradient id="SVGID_00000165930107908472113360000015639980119798940570_" cx="298.4815" cy="-19.1377" r="1.4833" fx="298.7762" fy="-17.801" gradientTransform="matrix(-0.9285 0.2891 -0.2951 -0.9478 289.0709 -102.8034)" gradientUnits="userSpaceOnUse">
			<stop  offset="0.2653" style="stop-color:#19B0CD"/>
			<stop  offset="0.8751" style="stop-color:#17556A"/>
		</radialGradient>
		<path style="fill:url(#SVGID_00000165930107908472113360000015639980119798940570_);" d="M16.9,1.4c0,0.4,0.4,0.8,0.8,0.8
			s0.8-0.4,0.8-0.8c0-0.2-0.1-0.4-0.2-0.5c-0.3-0.1-0.5-0.2-0.8-0.3C17.2,0.7,16.9,1,16.9,1.4z"/>
		
			<radialGradient id="SVGID_00000091700236094135600300000015020975242483019136_" cx="293.7175" cy="-19.677" r="3.2367" fx="294.3605" fy="-16.7604" gradientTransform="matrix(-0.9285 0.2891 -0.2951 -0.9478 279.8551 -102.4616)" gradientUnits="userSpaceOnUse">
			<stop  offset="0.2653" style="stop-color:#19B0CD"/>
			<stop  offset="0.8751" style="stop-color:#17556A"/>
		</radialGradient>
		<path style="fill:url(#SVGID_00000091700236094135600300000015020975242483019136_);" d="M13.1,0.5c0-0.1,0-0.2,0-0.3
			c-0.4,0.3-0.7,0.8-0.7,1.3c0,0.1,0,0.2,0,0.3c0.4-0.1,0.7-0.1,1.1-0.1C13.3,1.3,13.1,0.9,13.1,0.5z"/>
		
			<radialGradient id="SVGID_00000145046376395464567630000007528982925050931072_" cx="295.3847" cy="-19.8183" r="3.2293" fx="296.0263" fy="-16.9085" gradientTransform="matrix(-0.9285 0.2891 -0.2951 -0.9478 282.9829 -103.2151)" gradientUnits="userSpaceOnUse">
			<stop  offset="0.2653" style="stop-color:#F89E1B"/>
			<stop  offset="0.6907" style="stop-color:#EF4E23"/>
		</radialGradient>
		<path style="fill:url(#SVGID_00000145046376395464567630000007528982925050931072_);" d="M14.6,1.6c0.3,0,0.6,0,0.8,0.1
			c0-0.1,0-0.2,0-0.3c0-0.5-0.2-0.9-0.5-1.2c0,0.1,0,0.2,0,0.3C15,1,14.8,1.4,14.6,1.6z"/>
		
			<radialGradient id="SVGID_00000087414433452585563930000008314893826298436000_" cx="293.7175" cy="-19.677" r="3.237" fx="294.3606" fy="-16.7601" gradientTransform="matrix(-0.9285 0.2891 -0.2951 -0.9478 279.8551 -102.4616)" gradientUnits="userSpaceOnUse">
			<stop  offset="0.2653" style="stop-color:#19B0CD"/>
			<stop  offset="0.8751" style="stop-color:#17556A"/>
		</radialGradient>
		<path style="fill:url(#SVGID_00000087414433452585563930000008314893826298436000_);" d="M13.6,1.6c0.1,0,0.3,0,0.4,0
			c0.2,0,0.4,0,0.6,0C14.8,1.4,15,1,15,0.6c0-0.1,0-0.2,0-0.3c-0.1-0.1-0.2-0.1-0.3-0.2c-0.2,0-0.4,0-0.7,0c-0.3,0-0.5,0-0.8,0
			c0,0,0,0-0.1,0c0,0.1,0,0.2,0,0.3C13.1,0.9,13.3,1.3,13.6,1.6z"/>
		
			<radialGradient id="SVGID_00000083067957322093890670000010788140685617697210_" cx="295.3847" cy="-19.8183" r="3.2293" fx="296.0263" fy="-16.9085" gradientTransform="matrix(-0.9285 0.2891 -0.2951 -0.9478 282.9829 -103.2151)" gradientUnits="userSpaceOnUse">
			<stop  offset="0.2653" style="stop-color:#F89E1B"/>
			<stop  offset="0.6907" style="stop-color:#EF4E23"/>
		</radialGradient>
		<path style="fill:url(#SVGID_00000083067957322093890670000010788140685617697210_);" d="M13.6,1.6c0.1,0,0.3,0,0.4,0
			c0.2,0,0.4,0,0.6,0C14.8,1.4,15,1,15,0.6c0-0.1,0-0.2,0-0.3c-0.1-0.1-0.2-0.1-0.3-0.2c-0.2,0-0.4,0-0.7,0c-0.3,0-0.5,0-0.8,0
			c0,0,0,0-0.1,0c0,0.1,0,0.2,0,0.3C13.1,0.9,13.3,1.3,13.6,1.6z"/>
		
			<radialGradient id="SVGID_00000091006285038794569760000001335450830623899827_" cx="286.102" cy="-14.3266" r="4.4696" fx="286.99" fy="-10.299" gradientTransform="matrix(-0.9285 0.2891 -0.2951 -0.9478 266.9568 -89.9855)" gradientUnits="userSpaceOnUse">
			<stop  offset="0.2653" style="stop-color:#19B0CD"/>
			<stop  offset="0.8751" style="stop-color:#17556A"/>
		</radialGradient>
		<path style="fill:url(#SVGID_00000091006285038794569760000001335450830623899827_);" d="M6.3,3.3c0.1,0.4,0.5,0.8,0.9,0.9
			C7.3,4.1,7.4,4,7.5,3.9C7.2,3.6,6.8,3.3,6.3,3.3z"/>
		
			<radialGradient id="SVGID_00000163054794882477141790000003494680361626301881_" cx="8.8684" cy="1.4611" r="7.7203" fx="10.4023" fy="8.4179" gradientTransform="matrix(-0.9548 0.2973 -0.3035 -0.9745 17.7793 0.2485)" gradientUnits="userSpaceOnUse">
			<stop  offset="0.2653" style="stop-color:#19B0CD"/>
			<stop  offset="0.8751" style="stop-color:#17556A"/>
		</radialGradient>
		<path style="fill:url(#SVGID_00000163054794882477141790000003494680361626301881_);" d="M8.4,1.5C7.6,1.9,6.9,2.4,6.2,3
			c0,0.1,0,0.2,0.1,0.3c0.1,0.4,0.5,0.8,0.9,0.9C7.3,4.1,7.4,4,7.5,3.9c0.5-0.4,1-0.8,1.6-1.1C9.1,2.3,8.8,1.8,8.4,1.5z"/>
		
			<radialGradient id="SVGID_00000109742021270138885090000012431528037504071860_" cx="297.8663" cy="2.7154" r="1.6079" fx="298.1858" fy="4.1642" gradientTransform="matrix(-0.9285 0.2891 -0.2951 -0.9478 294.3506 -60.6621)" gradientUnits="userSpaceOnUse">
			<stop  offset="0.2653" style="stop-color:#19B0CD"/>
			<stop  offset="0.8751" style="stop-color:#17556A"/>
		</radialGradient>
		<path style="fill:url(#SVGID_00000109742021270138885090000012431528037504071860_);" d="M18,22.6c0-0.4-0.3-0.7-0.6-0.8
			c-0.3,0.1-0.6,0.2-0.9,0.3c-0.1,0.2-0.2,0.3-0.2,0.6c0,0.5,0.4,0.8,0.8,0.9c0.2,0,0.4-0.1,0.6-0.2C17.8,23.2,18,22.9,18,22.6z"/>
		
			<radialGradient id="SVGID_00000049211749039466531570000010443042723023805857_" cx="291.4338" cy="2.7154" r="1.6079" fx="291.7533" fy="4.1642" gradientTransform="matrix(-0.9285 0.2891 -0.2951 -0.9478 282.1221 -58.8022)" gradientUnits="userSpaceOnUse">
			<stop  offset="0.2653" style="stop-color:#19B0CD"/>
			<stop  offset="0.8751" style="stop-color:#17556A"/>
		</radialGradient>
		<path style="fill:url(#SVGID_00000049211749039466531570000010443042723023805857_);" d="M11.7,22.6c0-0.2-0.1-0.4-0.2-0.6
			c-0.3-0.1-0.6-0.2-0.9-0.3c-0.4,0.1-0.6,0.4-0.6,0.8c0,0.3,0.1,0.5,0.3,0.7c0.2,0.1,0.4,0.1,0.6,0.2
			C11.4,23.5,11.7,23.1,11.7,22.6z"/>
		
			<radialGradient id="SVGID_00000146500550753945993200000017894981009945991836_" cx="13.9453" cy="-2.4969" r="12.8982" fx="16.5079" fy="9.1256" gradientTransform="matrix(-0.9548 0.2973 -0.3035 -0.9745 26.5024 -9.0763)" gradientUnits="userSpaceOnUse">
			<stop  offset="0.2653" style="stop-color:#19B0CD"/>
			<stop  offset="0.8751" style="stop-color:#17556A"/>
		</radialGradient>
		<path style="fill:url(#SVGID_00000146500550753945993200000017894981009945991836_);" d="M11.5,0.4c0,0.1,0,0.2,0,0.3
			c0,0.5,0.2,0.9,0.5,1.2c0.2,0.2,0.4,0.3,0.6,0.4c-0.1-0.2-0.2-0.3-0.2-0.5c0-0.1,0-0.2,0-0.3c0-0.6,0.3-1,0.7-1.3c0,0,0,0,0,0
			C12.6,0.2,12.1,0.2,11.5,0.4z"/>
		
			<radialGradient id="SVGID_00000040554370739058516580000004022011498252945301_" cx="14.1902" cy="24.9248" r="5.243" fx="14.8348" fy="30.1279" gradientTransform="matrix(-0.9548 0.2973 -0.3035 -0.9745 35.3023 44.9963)" gradientUnits="userSpaceOnUse">
			<stop  offset="0.1044" style="stop-color:#0086AE"/>
			<stop  offset="0.4249" style="stop-color:#17556A"/>
		</radialGradient>
		<path style="fill:url(#SVGID_00000040554370739058516580000004022011498252945301_);" d="M15.4,22.3c-0.2-0.7-0.8-1.2-1.5-1.2
			c-0.7,0-1.4,0.5-1.5,1.2c0,0.1,0,0.3,0,0.4c0,0.5,0.2,0.9,0.6,1.2c0.4,0,0.7,0.1,1.1,0.1c0.3,0,0.6,0,0.9,0
			c0.4-0.3,0.6-0.7,0.6-1.2C15.5,22.5,15.5,22.4,15.4,22.3z"/>
		
			<radialGradient id="SVGID_00000078017036095755902500000017232918682983478420_" cx="12.4091" cy="-3.4819" r="12.0156" fx="14.7963" fy="7.3453" gradientTransform="matrix(-0.9548 0.2973 -0.3035 -0.9745 23.2005 -10.5644)" gradientUnits="userSpaceOnUse">
			<stop  offset="0.2653" style="stop-color:#F89E1B"/>
			<stop  offset="0.6907" style="stop-color:#EF4E23"/>
		</radialGradient>
		<path style="fill:url(#SVGID_00000078017036095755902500000017232918682983478420_);" d="M16.6,0.4c-0.5-0.1-1.1-0.2-1.7-0.2
			c-0.1,0-0.1,0-0.2,0c0.1,0,0.2,0.1,0.3,0.2c0.3,0.3,0.5,0.7,0.5,1.2c0,0.1,0,0.2,0,0.3c0,0.1-0.1,0.3-0.1,0.4
			C15.6,2.1,15.8,2,16,1.8c0.4-0.3,0.6-0.8,0.6-1.3C16.6,0.5,16.6,0.4,16.6,0.4z"/>
		
			<radialGradient id="SVGID_00000151542411845322567330000002639214826940080277_" cx="20.5724" cy="23.728" r="4.6564" fx="21.4975" fy="27.9239" gradientTransform="matrix(-0.9548 0.2973 -0.3035 -0.9745 47.4151 40.7359)" gradientUnits="userSpaceOnUse">
			<stop  offset="0.2653" style="stop-color:#F89E1B"/>
			<stop  offset="0.6907" style="stop-color:#EF4E23"/>
		</radialGradient>
		<path style="fill:url(#SVGID_00000151542411845322567330000002639214826940080277_);" d="M21.6,21.1c-0.1-0.5-0.5-0.9-1-1.1
			c0,0,0,0,0,0c0,0,0,0,0,0c-0.1,0-0.3-0.1-0.4-0.1c-0.8,0-1.4,0.6-1.5,1.3c0,0,0,0.1,0,0.1c0,0.5,0.3,1,0.7,1.2
			C20.2,22.2,20.9,21.7,21.6,21.1C21.6,21.1,21.6,21.1,21.6,21.1z"/>
		
			<radialGradient id="SVGID_00000063632257422594594770000005070465373027180206_" cx="304.8507" cy="0.1962" r="4.6753" fx="305.7796" fy="4.4091" gradientTransform="matrix(-0.9285 0.2891 -0.2951 -0.9478 306.8847 -67.5189)" gradientUnits="userSpaceOnUse">
			<stop  offset="0" style="stop-color:#0086AE"/>
			<stop  offset="0.5958" style="stop-color:#17556A"/>
		</radialGradient>
		<path style="fill:url(#SVGID_00000063632257422594594770000005070465373027180206_);" d="M20.6,20C20.6,20,20.6,20,20.6,20
			C20.6,20,20.6,20,20.6,20C20.6,20,20.6,20,20.6,20z"/>
		
			<radialGradient id="SVGID_00000123409052013292996900000015638703894474787983_" cx="300.9124" cy="1.5853" r="2.7329" fx="301.4554" fy="4.0479" gradientTransform="matrix(-0.9285 0.2891 -0.2951 -0.9478 299.8079 -63.7129)" gradientUnits="userSpaceOnUse">
			<stop  offset="0.2653" style="stop-color:#F89E1B"/>
			<stop  offset="0.6907" style="stop-color:#EF4E23"/>
		</radialGradient>
		<path style="fill:url(#SVGID_00000123409052013292996900000015638703894474787983_);" d="M20.6,20C20.6,20,20.6,20,20.6,20
			C20.6,20,20.6,20,20.6,20C20.6,20,20.6,20,20.6,20z"/>
		
			<radialGradient id="SVGID_00000116956108116533881860000011678831028154820534_" cx="293.7175" cy="-19.677" r="3.237" fx="294.3606" fy="-16.7601" gradientTransform="matrix(-0.9285 0.2891 -0.2951 -0.9478 279.8551 -102.4616)" gradientUnits="userSpaceOnUse">
			<stop  offset="0.2653" style="stop-color:#19B0CD"/>
			<stop  offset="0.8751" style="stop-color:#17556A"/>
		</radialGradient>
		<path style="fill:url(#SVGID_00000116956108116533881860000011678831028154820534_);" d="M13.2,2.4c0.3,0,0.7-0.1,0.9-0.3
			c-0.2-0.1-0.4-0.3-0.6-0.4c-0.4,0-0.8,0.1-1.1,0.1c0,0.2,0.1,0.4,0.2,0.5C12.8,2.3,13,2.4,13.2,2.4z"/>
		
			<radialGradient id="SVGID_00000124840074522644161880000008946329117121982629_" cx="295.3847" cy="-19.8183" r="3.2293" fx="296.0263" fy="-16.9085" gradientTransform="matrix(-0.9285 0.2891 -0.2951 -0.9478 282.9829 -103.2151)" gradientUnits="userSpaceOnUse">
			<stop  offset="0.2653" style="stop-color:#F89E1B"/>
			<stop  offset="0.6907" style="stop-color:#EF4E23"/>
		</radialGradient>
		<path style="fill:url(#SVGID_00000124840074522644161880000008946329117121982629_);" d="M14.2,2.1c0.2,0.1,0.4,0.1,0.7,0.1
			c0.2,0,0.3,0,0.5-0.1c0.1-0.1,0.1-0.3,0.1-0.4c-0.3,0-0.5-0.1-0.8-0.1C14.5,1.8,14.4,2,14.2,2.1z"/>
		
			<radialGradient id="SVGID_00000072254789344740156630000006313757657782358926_" cx="293.7175" cy="-19.677" r="3.237" fx="294.3606" fy="-16.7601" gradientTransform="matrix(-0.9285 0.2891 -0.2951 -0.9478 279.8551 -102.4616)" gradientUnits="userSpaceOnUse">
			<stop  offset="0.2653" style="stop-color:#19B0CD"/>
			<stop  offset="0.8751" style="stop-color:#17556A"/>
		</radialGradient>
		<path style="fill:url(#SVGID_00000072254789344740156630000006313757657782358926_);" d="M14.6,1.6c-0.2,0-0.4,0-0.6,0
			c-0.1,0-0.3,0-0.4,0c0.2,0.2,0.4,0.3,0.6,0.4C14.4,2,14.5,1.8,14.6,1.6z"/>
		
			<radialGradient id="SVGID_00000134247091575080676790000011245647888248897207_" cx="295.3847" cy="-19.8183" r="3.2293" fx="296.0263" fy="-16.9085" gradientTransform="matrix(-0.9285 0.2891 -0.2951 -0.9478 282.9829 -103.2151)" gradientUnits="userSpaceOnUse">
			<stop  offset="0.2653" style="stop-color:#F89E1B"/>
			<stop  offset="0.6907" style="stop-color:#EF4E23"/>
		</radialGradient>
		<path style="fill:url(#SVGID_00000134247091575080676790000011245647888248897207_);" d="M14.6,1.6c-0.2,0-0.4,0-0.6,0
			c-0.1,0-0.3,0-0.4,0c0.2,0.2,0.4,0.3,0.6,0.4C14.4,2,14.5,1.8,14.6,1.6z"/>
		
			<radialGradient id="SVGID_00000116199360987667850020000011128648801272899488_" cx="13.461" cy="1.9626" r="3.2377" fx="10.5577" fy="2.6672" gradientTransform="matrix(0.5163 0.8564 -0.8741 0.527 8.2261 -10.5995)" gradientUnits="userSpaceOnUse">
			<stop  offset="0.2653" style="stop-color:#19B0CD"/>
			<stop  offset="0.8751" style="stop-color:#17556A"/>
		</radialGradient>
		<path style="fill:url(#SVGID_00000116199360987667850020000011128648801272899488_);" d="M14.9,0.3c-0.1-0.1-0.2-0.1-0.3-0.2
			c-0.2,0-0.4,0-0.7,0c-0.3,0-0.5,0-0.8,0c0,0,0,0-0.1,0c-0.4,0.3-0.7,0.8-0.7,1.3c0,0.1,0,0.2,0,0.3c0,0.2,0.1,0.4,0.2,0.5
			C12.9,2.7,13.4,3,14,3c0.6,0,1.1-0.3,1.4-0.8c0.1-0.1,0.1-0.3,0.1-0.4c0-0.1,0-0.2,0-0.3C15.5,1,15.3,0.6,14.9,0.3z"/>
	</g>
	
		<radialGradient id="SVGID_00000055692380963356221610000015841815838760750735_" cx="12.8209" cy="14.0449" r="12.4891" fx="15.3022" fy="25.2987" gradientTransform="matrix(-0.9548 0.2973 -0.3035 -0.9745 29.3242 23.9205)" gradientUnits="userSpaceOnUse">
		<stop  offset="0.2653" style="stop-color:#19B0CD"/>
		<stop  offset="0.8751" style="stop-color:#17556A"/>
	</radialGradient>
	<path style="fill:url(#SVGID_00000055692380963356221610000015841815838760750735_);" d="M20.8,6.9c0-1.3-1-1.8-1.8-1.8
		c-1.7,0-2.7,1.5-5,1.6c-2.4,0-3.3-1.6-5-1.6c-0.8,0-1.8,0.5-1.8,1.8c0,1,1.2,3.5,1.3,5.2c-0.1,1.7-1.3,4.2-1.3,5.2
		c0,1.4,1,1.9,2,1.8c2.1-0.2,2.7-1.6,4.8-1.7c2.1,0.1,2.6,1.5,4.8,1.7c1,0.1,2-0.4,2-1.8c0-1-1.2-3.4-1.3-5.2
		C19.6,10.4,20.8,7.9,20.8,6.9z"/>
	<g>
		<path class="st71" d="M14.3,14.4c-1.6,0-2.6-1-2.6-2.3c0-1.6,1.1-2.4,2.6-2.4c1,0,1.8,0.4,2.2,1.1l1.6-1.5
			c-0.9-1.1-2.3-1.7-3.8-1.7c-2.6,0-4.7,2-4.7,4.5c0,2.7,2.1,4.5,4.7,4.5c1.6,0,3-0.7,3.9-1.8l-1.7-1.5C16,13.9,15.2,14.4,14.3,14.4
			z"/>
	</g>
</g>
</svg>
